<svg viewBox="0 0 100 100" xmlns="http://www.w3.org/2000/svg"><symbol viewBox="0 0 14 16" id="icon-delete"> <g id="delete-Page-1" stroke="none" stroke-width="1" fill="none" fill-rule="evenodd"> <g id="delete-UI-Elements" transform="translate(-148.000000, -135.000000)"> <g id="delete-Icon-30-&#x2014;-Delete" transform="translate(140.000000, 128.000000)"> <g id="delete-Group-7"> <path d="M3,0 L27,0 C28.6568542,-3.04359188e-16 30,1.34314575 30,3 L30,27 C30,28.6568542 28.6568542,30 27,30 L3,30 C1.34314575,30 2.02906125e-16,28.6568542 0,27 L0,3 C-2.02906125e-16,1.34314575 1.34314575,3.04359188e-16 3,0 Z" id="delete-Rectangle-2-Copy-6"/> <g id="delete-Group-9-Copy-5" transform="translate(8.000000, 7.000000)"> <g id="delete-Group-9-Copy"> <path d="M12.4545455,3.95454545 L12.4545455,14.5 C12.4545455,15.0522847 12.0068302,15.5 11.4545455,15.5 L2.54545455,15.5 C1.9931698,15.5 1.54545455,15.0522847 1.54545455,14.5 L1.54545455,3.95454545" id="delete-Shape" stroke="currentColor" stroke-linecap="square"/> <rect id="delete-Rectangle" fill="currentColor" x="0" y="1" width="14" height="1"/> <rect id="delete-Rectangle-Copy-6" fill="currentColor" x="5" y="0" width="4" height="1"/> <rect id="delete-Rectangle" fill="currentColor" x="5" y="5" width="1" height="8"/> <rect id="delete-Rectangle-Copy-5" fill="currentColor" x="8" y="5" width="1" height="8"/> </g> </g> </g> </g> </g> </g> </symbol><symbol viewBox="0 0 12 8" id="icon-dropdown"><desc>Created with sketchtool.</desc> <!-- Generator: sketchtool 55.2 (78181) - https://sketchapp.com -->   <g id="dropdown-Design" stroke="none" stroke-width="1" fill="none" fill-rule="evenodd" stroke-linecap="square"> <g id="dropdown-UI-elementes" transform="translate(-1258.000000, -552.000000)" stroke="currentColor" stroke-width="2"> <polyline id="dropdown-Shape-Copy-13" transform="translate(1264.000000, 556.000000) rotate(-180.000000) translate(-1264.000000, -556.000000) " points="1260 558 1264 554 1268 558"/> </g> </g> </symbol><symbol viewBox="0 0 12 17" id="icon-lock"> <g id="lock-Page-1" stroke="none" stroke-width="1" fill="none" fill-rule="evenodd"> <g id="lock-UI-Elements" transform="translate(-77.000000, -134.000000)"> <g id="lock-Icon-30-&#x2014;-Lock" transform="translate(68.000000, 128.000000)"> <g id="lock-Main-Button-36h-Copy-2"> <path d="M3,0 L27,0 C28.6568542,-3.04359188e-16 30,1.34314575 30,3 L30,27 C30,28.6568542 28.6568542,30 27,30 L3,30 C1.34314575,30 2.02906125e-16,28.6568542 0,27 L0,3 C-2.02906125e-16,1.34314575 1.34314575,3.04359188e-16 3,0 Z" id="lock-Rectangle-9"/> <g id="lock-lock-copy" transform="translate(9.000000, 7.000000)"> <g id="lock-Group"> <path d="M0,16 L0,7 L12,7 L12,16 L0,16 Z M6,13 C6.55228475,13 7,10.8627417 7,10.2 C7,9.5372583 6.55228475,9 6,9 C5.44771525,9 5,9.5372583 5,10.2 C5,10.8627417 5.44771525,13 6,13 Z" id="lock-Combined-Shape" fill="currentColor"/> <path d="M9.07784624,6.29899262 C9.07784624,5.7065968 9.07784624,3.68691579 9.07784624,3.26283646 C9.07784624,1.58848153 7.75044491,0.215132648 6,0.215132648 C4.24955508,0.215132648 2.92215376,1.53019737 2.92215376,3.26455809 L2.92215376,6.29899262" id="lock-Shape" stroke="currentColor" stroke-width="1.5" stroke-linecap="square"/> </g> </g> </g> </g> </g> </g> </symbol><symbol viewBox="0 0 12 18" id="icon-open"> <!-- Generator: sketchtool 52.5 (67469) - http://www.bohemiancoding.com/sketch --> <g id="open-Page-1" stroke="none" stroke-width="1" fill="none" fill-rule="evenodd"> <g id="open-UI-Elements" transform="translate(-74.000000, -133.000000)"> <g id="open-Icon-30-&#x2014;-Unlock" transform="translate(65.000000, 128.000000)"> <g id="open-Main-Button-36h-Copy-2"> <path d="M3,0 L27,0 C28.6568542,-3.04359188e-16 30,1.34314575 30,3 L30,27 C30,28.6568542 28.6568542,30 27,30 L3,30 C1.34314575,30 2.02906125e-16,28.6568542 0,27 L0,3 C-2.02906125e-16,1.34314575 1.34314575,3.04359188e-16 3,0 Z" id="open-Rectangle-9"/> <g id="open-lock-copy" transform="translate(9.000000, 6.000000)"> <g id="open-Group"> <path d="M0,17 L0,8 L12,8 L12,17 L0,17 Z M6,14 C6.55228475,14 7,11.8627417 7,11.2 C7,10.5372583 6.55228475,10 6,10 C5.44771525,10 5,10.5372583 5,11.2 C5,11.8627417 5.44771525,14 6,14 Z" id="open-Combined-Shape" fill="currentColor"/> <path d="M9.07784624,4.29899262 C9.07784624,3.7065968 9.07784624,3.68691579 9.07784624,3.26283646 C9.07784624,1.58848153 7.75044491,0.215132648 6,0.215132648 C4.24955508,0.215132648 2.92215376,1.53019737 2.92215376,3.26455809 L2.92215376,9.29899262" id="open-Shape" stroke="currentColor" stroke-width="1.5" stroke-linecap="square"/> </g> </g> </g> </g> </g> </g> </symbol><symbol viewBox="0 0 14 17" id="icon-pencil"> <g id="pencil-Page-1" stroke="none" stroke-width="1" fill="none" fill-rule="evenodd"> <g id="pencil-UI" transform="translate(-737.000000, -78.000000)" fill="currentColor"> <g id="pencil-Icon-Edit" transform="translate(726.000000, 68.000000)"> <path d="M19.1334936,13.6419268 L21.8952849,15.7996747 L15.7788918,23.6283009 L13.0171005,21.470553 L19.1334936,13.6419268 Z M23.9123854,10.371564 C24.675033,10.9674096 24.8102528,12.068686 24.2144072,12.8313336 L22.5748842,14.9298274 L19.8130928,12.7720794 L21.4526158,10.6735857 C22.0484614,9.9109381 23.1497378,9.77571837 23.9123854,10.371564 Z M12.3375012,22.3404003 L15.0992926,24.4981482 L11,26.8986637 L12.3375012,22.3404003 Z" id="pencil-Combined-Shape-Copy-2"/> </g> </g> </g> </symbol><symbol viewBox="0 0 9 9" id="icon-plus"> <g id="plus-Page-2" stroke="none" stroke-width="1" fill="none" fill-rule="evenodd"> <g id="plus-Group-8-Copy" fill="currentColor"> <polygon id="plus-+" points="3.7109375 5.21875 0.6875 5.21875 0.6875 3.5078125 3.7109375 3.5078125 3.7109375 0.4609375 5.421875 0.4609375 5.421875 3.5078125 8.4453125 3.5078125 8.4453125 5.21875 5.421875 5.21875 5.421875 8.2265625 3.7109375 8.2265625"/> </g> </g> </symbol></svg>