<svg id="Capa_1" enable-background="new 0 0 512.003 512.003" height="512" viewBox="0 0 512.003 512.003" width="512" xmlns="http://www.w3.org/2000/svg"><g id="XMLID_1019_"><path id="XMLID_1265_" d="m99.471 198.947c-18.881 47.428-28.58 98.011-28.58 149.059v111.265c0 23.6 19.132 42.732 42.732 42.732h73.58-30.848 85.463c23.6 0 42.732-19.132 42.732-42.732v-94.726c0-29.291-18.566-55.362-46.246-64.941s-46.246-35.651-46.246-64.941v-35.715h-92.587z" fill="#888888"/><path id="XMLID_1334_" d="m177.103 342.175c-28.636-28.636-75.064-28.636-103.699 0l-2.498 3.422c-.005.803-.014 1.606-.014 2.409v111.265c0 23.6 19.132 42.732 42.732 42.732h42.732 30.848 54.615c23.6 0 42.732-19.132 42.732-42.732v-94.726c0-7.766-1.317-15.301-3.751-22.367-28.638 28.633-75.063 28.632-103.697-.003z" fill="#505050"/><path id="XMLID_2176_" d="m99.471 135.223h92.585v63.428h-92.585z" fill="#fff"/><path id="XMLID_2175_" d="m275.053 64.003h-161.356c-39.374 0-71.294 31.919-71.294 71.294v13.466c13.251-8.829 28.817-13.54 44.74-13.54h104.913l24.389-21.366h58.608c5.245 0 9.496-4.252 9.496-9.496v-30.862c0-5.244-4.251-9.496-9.496-9.496z" fill="#333"/><path id="XMLID_2174_" d="m192.056 135.113c3.246 33.856 30.273 60.764 64.18 63.834-13.164-12.887-21.337-30.852-21.337-50.73v-29.185l-18.454-5.175z" fill="#e2e9ee"/><path id="XMLID_2489_" d="m275.053 64.003h-34.274v49.854h34.274c5.244 0 9.496-4.251 9.496-9.496v-30.862c0-5.244-4.251-9.496-9.496-9.496z" fill="#e2e9ee"/><g id="XMLID_298_"><path id="XMLID_339_" d="m404.874.965-39.024 18.477c-4.992 2.364-7.122 8.326-4.759 13.317 1.709 3.61 5.3 5.723 9.045 5.723 1.434 0 2.891-.31 4.272-.964l39.023-18.478c4.992-2.364 7.122-8.326 4.759-13.317s-8.325-7.123-13.316-4.758z"/><path id="XMLID_340_" d="m413.432 158.818-27.442-12.994c-4.989-2.362-10.953-.233-13.317 4.759-2.363 4.992-.232 10.954 4.759 13.317l27.442 12.994c1.382.654 2.838.964 4.272.964 3.745 0 7.336-2.114 9.045-5.723 2.363-4.99.233-10.953-4.759-13.317z"/><path id="XMLID_1625_" d="m348.724 128.179-54.175-25.652v-27.195l30.864-14.615c4.992-2.364 7.122-8.326 4.759-13.318-2.363-4.991-8.326-7.123-13.317-4.758l-30.964 14.662c-3.102-2.082-6.829-3.301-10.837-3.301h-61.385c-5.522 0-10 4.477-10 10s4.478 10 10 10h17.11v29.854h-14.333c-2.424 0-4.766.881-6.59 2.478l-21.561 18.888h-88.824-12.328c-11.992 0-23.731 2.347-34.657 6.873 1.669-32.317 28.486-58.093 61.211-58.093h9.972c5.522 0 10-4.477 10-10s-4.478-10-10-10h-9.972c-44.825 0-81.294 36.468-81.294 81.293v13.466c0 3.688 2.029 7.076 5.28 8.816 1.479.792 3.101 1.184 4.719 1.184 1.939 0 3.873-.563 5.546-1.678 11.646-7.76 25.2-11.862 39.195-11.862h2.328v51.838c-18.961 48.277-28.58 99.049-28.58 150.946v111.265c0 29.077 23.655 52.732 52.731 52.732h128.195c29.076 0 52.731-23.655 52.731-52.732v-94.726c0-33.53-21.289-63.426-52.976-74.392-23.637-8.18-39.518-30.48-39.518-55.491v-35.716c0-.05-.007-.098-.008-.148.001-.05.008-.098.008-.148v-16.737c13.303 15.029 32.099 25.074 53.279 26.992.303.027.604.041.905.041 3.87 0 7.431-2.245 9.075-5.809 1.772-3.84.938-8.379-2.084-11.337-11.822-11.572-18.333-27.051-18.333-43.583v-24.361h30.154c4.008 0 7.736-1.218 10.838-3.301l54.275 25.699c1.382.654 2.839.964 4.272.964 3.745 0 7.336-2.114 9.045-5.723 2.366-4.989.236-10.951-4.756-13.315zm-166.668 17.044v43.428h-72.585v-43.428zm92.493 314.048c0 18.048-14.684 32.732-32.731 32.732h-85.464-42.731c-18.048 0-32.731-14.684-32.731-32.732v-110.422c11.913-11.703 27.639-18.151 44.361-18.151 16.915 0 32.817 6.587 44.778 18.548 16.245 16.245 37.583 24.367 58.922 24.367 15.839 0 31.674-4.486 45.43-13.436.107 1.446.167 2.902.167 4.369v94.725zm-39.516-150.217c15.25 5.277 27.262 16.438 33.873 30.406-11.261 9.191-25.222 14.192-39.953 14.191-16.916 0-32.818-6.587-44.779-18.548-27.762-27.761-70.389-31.779-102.48-12.097 2.466-39.06 10.705-77.302 24.622-114.059h75.741v25.716c-.001 33.53 21.289 63.425 52.976 74.391zm-32.306-169.884 17.48-15.313h4.692v24.361c0 11.411 2.335 22.443 6.781 32.565-14.948-8.838-25.756-23.881-28.953-41.613zm71.822-35.313h-23.771v-29.854h23.771z"/><path id="XMLID_1637_" d="m344.445 98.93h37.266c5.522 0 10-4.477 10-10s-4.478-10-10-10h-37.266c-5.522 0-10 4.477-10 10s4.477 10 10 10z"/><path id="XMLID_1743_" d="m469.6 78.93h-37.267c-5.522 0-10 4.477-10 10s4.478 10 10 10h37.267c5.522 0 10-4.477 10-10s-4.477-10-10-10z"/><path id="XMLID_1759_" d="m168.671 74.003c2.63 0 5.21-1.07 7.07-2.93 1.859-1.86 2.93-4.44 2.93-7.07s-1.07-5.21-2.93-7.07-4.44-2.93-7.07-2.93c-2.64 0-5.21 1.07-7.07 2.93-1.87 1.86-2.93 4.44-2.93 7.07s1.06 5.21 2.93 7.07c1.86 1.86 4.431 2.93 7.07 2.93z"/></g></g></svg>
