<?xml version="1.0"?>
<svg xmlns="http://www.w3.org/2000/svg" id="Outline" viewBox="0 0 512 512" width="512" height="512"><path d="M488,64H464V56a8,8,0,0,0-8-8H400V40a24,24,0,0,0-48,0v8H336V40a24,24,0,0,0-48,0v8H192V40a24,24,0,0,0-48,0v8H128V40a24,24,0,0,0-48,0v8H24a8,8,0,0,0-8,8V456a8,8,0,0,0,8,8h8v24a8,8,0,0,0,8,8H488a8,8,0,0,0,8-8V72A8,8,0,0,0,488,64ZM32,448V160H448V448ZM368,40a8,8,0,0,1,16,0v8H368Zm-64,0a8,8,0,0,1,16,0v8H304ZM160,40a8,8,0,0,1,16,0v8H160ZM96,40a8,8,0,0,1,16,0v8H96ZM80,64v8a24.028,24.028,0,0,0,24,24,8,8,0,0,0,0-16,8.009,8.009,0,0,1-8-8V64h48v8a24.028,24.028,0,0,0,24,24,8,8,0,0,0,0-16,8.009,8.009,0,0,1-8-8V64H288v8a24.028,24.028,0,0,0,24,24,8,8,0,0,0,0-16,8.009,8.009,0,0,1-8-8V64h48v8a24.028,24.028,0,0,0,24,24,8,8,0,0,0,0-16,8.009,8.009,0,0,1-8-8V64h80v80H32V64ZM480,480H48V464H456a8,8,0,0,0,8-8V80h16Z"/><path d="M232,344a47.994,47.994,0,0,0-21.493-40A47.994,47.994,0,1,0,136,264a8,8,0,0,0,16,0,32,32,0,1,1,32,32,8,8,0,0,0,0,16,32,32,0,1,1-32,32,8,8,0,0,0-16,0,48,48,0,0,0,96,0Z"/><path d="M296,392a48.053,48.053,0,0,0,48-48V264a48,48,0,0,0-96,0v80A48.053,48.053,0,0,0,296,392ZM264,264a32,32,0,0,1,64,0v80a32,32,0,0,1-64,0Z"/></svg>
