<svg id="Layer_3" enable-background="new 0 0 64 64" height="512" viewBox="0 0 64 64" width="512" xmlns="http://www.w3.org/2000/svg"><g><path d="m58 .905h-52c-2.757 0-5 2.243-5 5v38c0 2.757 2.243 5 5 5h16v6h-2c-2.206 0-4 1.794-4 4v3c0 .552.448 1 1 1h30c.552 0 1-.448 1-1v-3c0-2.206-1.794-4-4-4h-2v-6h16c2.757 0 5-2.243 5-5v-38c0-2.757-2.243-5-5-5zm-52 2h52c1.654 0 3 1.346 3 3v31h-58v-31c0-1.654 1.346-3 3-3zm40 56v2h-28v-2c0-1.103.897-2 2-2h24c1.103 0 2 .897 2 2zm-6-4h-16v-6h16zm18-8h-52c-1.654 0-3-1.346-3-3v-5h58v5c0 1.655-1.346 3-3 3z"/><path d="m9 18.22v15.685c0 .552.448 1 1 1h20c.552 0 1-.448 1-1v-24c0-.552-.448-1-1-1h-11.685c-1.126-2.361-3.53-4-6.315-4-3.86 0-7 3.14-7 7 0 2.786 1.639 5.189 4 6.315zm20-7.315v22h-18v-14.08c.328.047.66.08 1 .08s.672-.033 1-.08v3.08c0 .552.448 1 1 1h12c.552 0 1-.448 1-1v-8c0-.552-.448-1-1-1h-7.08c.047-.328.08-.66.08-1s-.033-.672-.08-1zm-10.685 4h6.685v6h-10v-2.685c1.45-.691 2.623-1.865 3.315-3.315zm-6.315-8c2.757 0 5 2.243 5 5s-2.243 5-5 5-5-2.243-5-5 2.243-5 5-5z"/><path d="m11 14.905c.256 0 .512-.098.707-.293l4-4-1.414-1.414-3.293 3.293-1.293-1.293-1.414 1.414 2 2c.195.196.451.293.707.293z"/><path d="m37 18.22v15.685c0 .552.448 1 1 1h20c.552 0 1-.448 1-1v-24c0-.552-.448-1-1-1h-11.685c-1.126-2.361-3.53-4-6.315-4-3.86 0-7 3.14-7 7 0 2.786 1.639 5.189 4 6.315zm20-7.315v22h-18v-14.08c.328.047.66.08 1 .08s.672-.033 1-.08v3.08c0 .552.448 1 1 1h12c.552 0 1-.448 1-1v-8c0-.552-.448-1-1-1h-7.08c.047-.328.08-.66.08-1s-.033-.672-.08-1zm-10.685 4h6.685v6h-10v-2.685c1.45-.691 2.623-1.865 3.315-3.315zm-6.315-8c2.757 0 5 2.243 5 5s-2.243 5-5 5-5-2.243-5-5 2.243-5 5-5z"/><path d="m38.707 14.612 1.293-1.293 1.293 1.293 1.414-1.414-1.293-1.293 1.293-1.293-1.414-1.414-1.293 1.293-1.293-1.293-1.414 1.414 1.293 1.293-1.293 1.293z"/><path d="m13 24.905h14v2h-14z"/><path d="m13 28.905h14v2h-14z"/><path d="m41 24.905h14v2h-14z"/><path d="m41 28.905h14v2h-14z"/><path d="m57 42.905h2v2h-2z"/><path d="m53 42.905h2v2h-2z"/></g></svg>