<?xml version="1.0" encoding="UTF-8"?>
<svg width="14px" height="16px" viewBox="0 0 14 16" version="1.1" xmlns="http://www.w3.org/2000/svg" xmlns:xlink="http://www.w3.org/1999/xlink">
    <g id="Page-1" stroke="none" stroke-width="1" fill="none" fill-rule="evenodd">
        <g id="UI-Elements" transform="translate(-148.000000, -135.000000)">
            <g id="Icon-30-—-Delete" transform="translate(140.000000, 128.000000)">
                <g id="Group-7">
                    <path d="M3,0 L27,0 C28.6568542,-3.04359188e-16 30,1.34314575 30,3 L30,27 C30,28.6568542 28.6568542,30 27,30 L3,30 C1.34314575,30 2.02906125e-16,28.6568542 0,27 L0,3 C-2.02906125e-16,1.34314575 1.34314575,3.04359188e-16 3,0 Z" id="Rectangle-2-Copy-6"></path>
                    <g id="Group-9-Copy-5" transform="translate(8.000000, 7.000000)">
                        <g id="Group-9-Copy">
                            <path d="M12.4545455,3.95454545 L12.4545455,14.5 C12.4545455,15.0522847 12.0068302,15.5 11.4545455,15.5 L2.54545455,15.5 C1.9931698,15.5 1.54545455,15.0522847 1.54545455,14.5 L1.54545455,3.95454545"
                                id="Shape" stroke="currentColor" stroke-linecap="square"></path>
                            <rect id="Rectangle" fill="currentColor" x="0" y="1" width="14" height="1"></rect>
                            <rect id="Rectangle-Copy-6" fill="currentColor" x="5" y="0" width="4" height="1"></rect>
                            <rect id="Rectangle" fill="currentColor" x="5" y="5" width="1" height="8"></rect>
                            <rect id="Rectangle-Copy-5" fill="currentColor" x="8" y="5" width="1" height="8"></rect>
                        </g>
                    </g>
                </g>
            </g>
        </g>
    </g>
</svg>
