<svg height="512" viewBox="0 0 56 60" width="512" xmlns="http://www.w3.org/2000/svg"><g id="Page-1" fill="none" fill-rule="evenodd"><g id="009---Drone-Survyeing" fill-rule="nonzero" transform="translate(0 -1)"><path id="Shape" d="m51.98 19c-.1772813 2.5162329-1.7894421 4.7047218-4.14 5.62l-3.7 1.44-5.83 2.26-3.96 1.54c-.2325526.0915098-.4800926.1389832-.73.14h-11.24c-.2499074-.0010168-.4974474-.0484902-.73-.14l-3.96-1.54-5.83-2.26-3.7-1.44c-2.35024787-.9156829-3.9622403-3.1039432-4.14-5.62h15.98c0 1.6568542 1.3431458 3 3 3h10c1.6568542 0 3-1.3431458 3-3z" fill="#fec108"/><path id="Shape" d="m52 18.53c0 .16-.01.32-.02.47h-15.98c0-1.6568542-1.3431458-3-3-3h-10c-1.6568542 0-3 1.3431458-3 3h-15.98c-.01-.15-.02-.31-.02-.47-.00239291-1.7325961.68481881-3.3949179 1.90995046-4.6200495 1.22513165-1.2251317 2.88745339-1.9123434 4.62004954-1.9099505h34.94c1.7322704-.0013279 3.3939731.6862258 4.6188737 1.9111263 1.2249005 1.2249006 1.9124542 2.8866033 1.9111263 4.6188737z" fill="#ffdc00"/><path id="Rectangle-path" d="m24 30h8v5h-8z" fill="#37474f"/><rect id="Rectangle-path" fill="#9e9e9e" height="12" rx="2" width="16" x="20" y="35"/><path id="Shape" d="m34 35h-3c1.1032019.0032948 1.9967052.8967981 2 2v8c-.0032948 1.1032019-.8967981 1.9967052-2 2h3c1.1032019-.0032948 1.9967052-.8967981 2-2v-8c-.0032948-1.1032019-.8967981-1.9967052-2-2z" fill="#707070"/><circle id="Oval" cx="28" cy="41" fill="#02a9f4" r="2"/><path id="Shape" d="m17.69 28.32-6.69 8.7v9.98c0 1.6568542-1.34314575 3-3 3s-3-1.3431458-3-3v-9.98c.00240855-1.3227019.43793885-2.6082187 1.24-3.66l5.62-7.3z" fill="#607d8b"/><path id="Shape" d="m11.86 26.06-.69.9 3.52 1.364-6.69 8.696v9.98c-.00095412 1.068124-.57312316 2.0541619-1.5 2.585.92462507.5468678 2.07192674.5541481 3.00341748.0190585.93149072-.5350897 1.50318332-1.5298367 1.49658252-2.6040585v-9.98l6.69-8.7z" fill="#37474f"/><path id="Shape" d="m51 37.02v9.98c-.0000001 1.6568542-1.3431458 2.9999999-3 2.9999999s-2.9999999-1.3431457-3-2.9999999v-9.98l-6.69-8.7 5.83-2.26 5.62 7.3c.8020612 1.0517813 1.2375914 2.3372981 1.24 3.66z" fill="#607d8b"/><path id="Shape" d="m49.76 33.36-5.62-7.3-2.31.9 4.93 6.4c.8020612 1.0517813 1.2375914 2.3372981 1.24 3.66v9.98c-.0009541 1.068124-.5731232 2.0541619-1.5 2.585.9246251.5468678 2.0719267.5541481 3.0034175.0190585.9314907-.5350897 1.5031833-1.5298367 1.4965825-2.6040585v-9.98c-.0024086-1.3227019-.4379388-2.6082187-1.24-3.66z" fill="#37474f"/><path id="Shape" d="m17 8v4h-6v-4c0-.55228475.4477153-1 1-1h4c.5522847 0 1 .44771525 1 1z" fill="#cfd8dc"/><path id="Shape" d="m45 8v4h-6v-4c0-.55228475.4477153-1 1-1h4c.5522847 0 1 .44771525 1 1z" fill="#cfd8dc"/><path id="Shape" d="m17 39h3v4h-3c-.5522847 0-1-.4477153-1-1v-2c0-.5522847.4477153-1 1-1z" fill="#545c60"/><path id="Shape" d="m36 39h3c.5522847 0 1 .4477153 1 1v2c0 .5522847-.4477153 1-1 1h-3z" fill="#545c60"/><path id="Shape" d="m36 19c0 1.6568542-1.3431458 3-3 3h-10c-1.6568542 0-3-1.3431458-3-3s1.3431458-3 3-3h10c1.6568542 0 3 1.3431458 3 3z" fill="#607d8b"/><g fill="#f44335"><path id="Shape" d="m1 61c-.44298257-.0000582-.83313545-.291551-.95879286-.7163378-.12565742-.4247867.04313047-.8816215.41479286-1.1226622l11-7.12c.2997994-.2093044.6899293-.2383016 1.0173774-.0756186s.5400038.491107.5543008.8564611c.014297.365354-.1719442.7093837-.4856782.8971575l-11 7.12c-.16117447.1052135-.34952384.1611623-.542.161z"/><path id="Shape" d="m16.451 51c-.4434241.0001835-.8340143-.2916673-.9595215-.7169589-.1255073-.4252915.0440452-.8824453.4165215-1.1230411l1.55-1c.3001877-.2045957.6877199-.2303019 1.0123016-.0671491.3245816.1631528.5351527.489499.5500482.8524732.0148955.3629741-.1682278.7054765-.4783498.8946759l-1.55 1c-.1610958.1044639-.3489986.1600359-.541.16z"/><path id="Shape" d="m55 61c-.1924594.0000467-.3807765-.0558925-.542-.161l-3.09-2c-.313734-.1877738-.4999752-.5318035-.4856782-.8971575.014297-.3653541.2268527-.6937781.5543008-.8564611s.717578-.1336858 1.0173774.0756186l3.09 2c.3716624.2410407.5404503.6978755.4147929 1.1226622-.1256575.4247868-.5158103.7162796-.9587929.7163378z"/><path id="Shape" d="m47.269 56c-.1924762.0001623-.3808255-.0557865-.542-.161l-9.27-6c-.313734-.1877738-.4999752-.5318035-.4856782-.8971575.014297-.3653541.2268527-.6937781.5543008-.8564611s.717578-.1336858 1.0173774.0756186l9.27 6c.3716624.2410407.5404503.6978755.4147929 1.1226622-.1256575.4247868-.5158103.7162796-.9587929.7163378z"/><path id="Shape" d="m28 61c-.5522847 0-1-.4477153-1-1v-9c0-.5522847.4477153-1 1-1s1 .4477153 1 1v9c0 .5522847-.4477153 1-1 1z"/></g><path id="Shape" d="m28 38c-1.6568542 0-3 1.3431458-3 3s1.3431458 3 3 3 3-1.3431458 3-3-1.3431458-3-3-3zm0 4c-.5522847 0-1-.4477153-1-1s.4477153-1 1-1 1 .4477153 1 1-.4477153 1-1 1z" fill="#000"/><path id="Shape" d="m1.836 2.986 11.164 1.861v1.153h-1c-1.1045695 0-2 .8954305-2 2v3.027c-3.94005587.2804562-6.99476644 3.5559787-7 7.506 0 .139.023.273.031.411 0 .019-.011.036-.011.056.00539437.0414657.01341042.082548.024.123.20735152 2.8826683 2.06001263 5.3866434 4.756 6.428l2.455.955-4.811 6.248c-.93232156 1.2271955-1.43925591 2.7248284-1.444 4.266v9.98c.00000003 2.209139 1.79086102 3.9999999 4 3.9999999 2.209139 0 4-1.7908609 4-3.9999999v-9.64l6.024-7.833 3.263 1.273c.3469864.134055.7160232.2018926 1.088.2h.625v3h-1c-1.6568542 0-3 1.3431458-3 3v1h-2c-1.1045695 0-2 .8954305-2 2v2c0 1.1045695.8954305 2 2 2h2v1c0 1.6568542 1.3431458 3 3 3h12c1.6568542 0 3-1.3431458 3-3v-1h2c1.1045695 0 2-.8954305 2-2v-2c0-1.1045695-.8954305-2-2-2h-2v-1c0-1.6568542-1.3431458-3-3-3h-1v-3h.625c.3716178.0015091.7402564-.0663177 1.087-.2l3.264-1.269 6.024 7.829v9.64c0 2.209139 1.790861 4 4 4s4-1.790861 4-4v-9.98c-.0048791-1.5430257-.5132941-3.042288-1.448-4.27l-4.808-6.244 2.455-.955c2.6955226-1.040848 4.5481412-3.5439866 4.756-6.426.0113038-.0410171.0196584-.0827904.025-.125 0-.02-.01-.037-.011-.057.007-.139.031-.273.031-.413-.0078878-3.947903-3.0620178-7.2201852-7-7.5v-3.03c0-1.1045695-.8954305-2-2-2h-1v-1.153l11.164-1.861c.3611529-.0489371.6670837-.29047993.7984763-.63042445.1313926-.33994451.0674379-.72445247-.1669211-1.00356203s-.602006-.40861714-.9595552-.33801352l-10.836 1.806v-.82c0-.55228475-.4477153-1-1-1s-1 .44771525-1 1v.82l-10.836-1.806c-.3575492-.07060362-.7251962.05890396-.9595552.33801352s-.2983137.66361752-.1669211 1.00356203c.1313926.33994452.4373234.58148735.7984763.63042445l11.164 1.861v1.153h-1c-1.1045695 0-2 .8954305-2 2v3h-20v-3c0-1.1045695-.8954305-2-2-2h-1v-1.153l11.164-1.861c.3611529-.0489371.6670837-.29047993.7984763-.63042445.1313926-.33994451.0674379-.72445247-.1669211-1.00356203s-.602006-.40861714-.9595552-.33801352l-10.836 1.806v-.82c0-.55228475-.4477153-1-1-1s-1 .44771525-1 1v.82l-10.836-1.806c-.35754918-.07060362-.72519624.05890396-.95955524.33801352s-.29831367.66361752-.16692107 1.00356203c.13139261.33994452.43732337.58148735.79847631.63042445zm8.371 33.425c-.1341853.1746638-.2069512.388743-.207.609v9.98c0 1.1045695-.8954305 2-2 2s-2-.8954305-2-2v-9.98c.003743-1.1017463.36598944-2.172339 1.032-3.05l5.168-6.709 3.885 1.51zm6.793 5.589v-2h2v2zm22-2v2h-2v-2zm-4-3v8c0 .5522847-.4477153 1-1 1h-12c-.5522847 0-1-.4477153-1-1v-8c0-.5522847.4477153-1 1-1h12c.5522847 0 1 .4477153 1 1zm-4-3h-6v-3h6zm17.964-.034c.6683937.8781787 1.0321204 1.9504001 1.036 3.054v9.98c0 1.1045695-.8954305 2-2 2s-2-.8954305-2-2v-9.98c-.0000488-.220257-.0728147-.4343362-.207-.609l-5.875-7.64 3.885-1.51zm-1.489-10.279-13.489 5.245c-.1150309.0450118-.237476.0680763-.361.068h-11.25c-.1238362-.0000568-.2465847-.0231145-.362-.068l-13.488-5.245c-1.63084095-.6296219-2.8636959-1.9991718-3.319-3.687h13.936c.4545933 1.7606851 2.0395884 2.9931852 3.858 3h10c1.8184116-.0068148 3.4034067-1.2393149 3.858-3h13.936c-.4550118 1.6879872-1.6879703 3.0576522-3.319 3.687zm-26.475-4.687c0-1.1045695.8954305-2 2-2h10c1.1045695 0 2 .8954305 2 2s-.8954305 2-2 2h-10c-1.1045695 0-2-.8954305-2-2zm29.973-1h-14.115c-.4545933-1.7606851-2.0395884-2.9931852-3.858-3h-10c-1.8184116.0068148-3.4034067 1.2393149-3.858 3h-14.115c.27554933-2.8326494 2.65398458-4.9948633 5.5-5h34.943c2.8471649.0035957 5.2273372 2.1662091 5.503 5zm-10.973-10h4v3h-4zm-24 3h-4v-3h4z" fill="#000"/></g></g></svg>