<svg id="Capa_1" enable-background="new 0 0 512 512" height="512" viewBox="0 0 512 512" width="512" xmlns="http://www.w3.org/2000/svg"><g><g><g><path d="m374.609 444.545c2.503-5.492 3.908-11.59 3.908-18.019 0-24.034-19.484-43.518-43.518-43.518-2.092 0-4.147.156-6.16.442-1.649-21.839-19.878-39.05-42.139-39.05-11.357 0-21.66 4.487-29.256 11.775-7.595-7.288-17.898-11.775-29.255-11.775-2.271 0-4.499.184-6.673.529-2.461-26.47-24.725-47.195-51.838-47.195s-49.377 20.724-51.838 47.195c-2.174-.345-4.402-.529-6.673-.529-22.98 0-41.663 18.34-42.246 41.179-16.77 6.045-28.76 22.094-28.76 40.947 0 6.429 1.405 12.526 3.908 18.019z" fill="#c7865b"/></g></g><g><g><path d="m83.783 354.49c1.37.085 2.725.228 4.058.439.12-1.294.302-2.571.515-3.836-1.603 1.03-3.129 2.166-4.573 3.397z" fill="#c27e4e"/></g></g><g><g><path d="m139.678 307.735c27.113 0 49.377 20.724 51.838 47.194 2.174-.345 4.402-.529 6.673-.529 11.357 0 21.66 4.487 29.255 11.775 7.325-7.028 17.172-11.439 28.051-11.746-7.367-6.247-16.89-10.029-27.306-10.029-2.271 0-4.499.184-6.673.529-2.461-26.47-24.725-47.194-51.838-47.194-11.478 0-22.079 3.725-30.684 10.016.229-.003.455-.016.684-.016z" fill="#c27e4e"/></g></g><g><g><path d="m334.999 383.008c-2.092 0-4.147.157-6.16.442-1.649-21.839-19.878-39.05-42.139-39.05-10.45 0-20.001 3.806-27.378 10.089 21.054 1.29 37.933 17.986 39.517 38.96 2.013-.286 4.068-.442 6.16-.442 24.035 0 43.518 19.483 43.518 43.518 0 2.742-.27 5.418-.757 8.019h26.85c2.502-5.492 3.908-11.589 3.908-18.019-.001-24.034-19.484-43.517-43.519-43.517z" fill="#c27e4e"/></g></g><g><g><path d="m504.5 478.546h-497v-24.295c0-9.223 7.476-16.699 16.699-16.699h463.602c9.223 0 16.699 7.476 16.699 16.699z" fill="#6dc17d"/></g></g><g><g><path d="m487.801 437.552h-30c9.223 0 16.699 7.476 16.699 16.699v24.295h30v-24.295c0-9.223-7.476-16.699-16.699-16.699z" fill="#68b76a"/></g></g><g><g><path d="m440.206 34.578-342.717 233.523c-3.153 2.07-4.038 6.344-1.968 9.497l10.39 15.821c2.071 3.153 6.344 4.039 9.497 1.968l342.717-233.523c3.153-2.07 4.039-6.344 1.968-9.497l-10.39-15.821c-2.07-3.153-6.344-4.039-9.497-1.968z" fill="#dce6eb"/></g></g><g><g><path d="m166.719 189.644 2.146 32.806c3.479 53.172 37.595 99.453 87.358 118.506l12.789 4.897c6.275 2.403 4.908 11.651-1.794 12.135-78.324 5.655-145.242-55.811-146.247-134.332l-.3-23.462z" fill="#a2abb8"/></g></g><g><path d="m487.801 430.052h-101.918c.081-1.174.135-2.35.135-3.526 0-28.066-22.78-50.912-50.823-51.018-5.117-22.16-25.145-38.608-48.494-38.608-4.95 0-9.823.731-14.514 2.162-.165-.071-.324-.149-.493-.213l-12.788-4.896c-35.255-13.499-62.32-41.715-74.969-76.183l278.37-189.678c3.164-2.102 5.331-5.313 6.105-9.048.779-3.761.051-7.595-2.05-10.793l-10.39-15.821c-2.102-3.199-5.329-5.391-9.091-6.17-3.76-.781-7.594-.051-10.793 2.049-.035.024-.071.047-.107.071l-260.676 177.622-1.102-16.848c-.143-2.193-1.242-4.213-3.005-5.525-1.764-1.313-4.012-1.787-6.154-1.295l-46.049 10.55c-3.443.789-5.87 3.874-5.824 7.406l.3 23.463c.1 7.785.812 15.451 2.099 22.954l-22.261 15.167c-6.566 4.361-8.389 13.245-4.057 19.842l10.39 15.821c2.102 3.2 5.329 5.391 9.09 6.17.984.204 1.973.305 2.953.305 2.77 0 5.478-.803 7.841-2.354.035-.023.07-.047.106-.071l12.521-8.532c1.397 2.449 2.869 4.859 4.414 7.228-12.757 8.552-21.734 21.755-25.042 36.62-13.208-.128-25.688 4.944-35.121 14.158-8.135 7.947-13.222 18.234-14.61 29.375-17.609 8.375-29.133 26.318-29.133 46.091 0 1.176.054 2.353.135 3.526h-8.597c-13.343-.001-24.199 10.855-24.199 24.198v24.295c0 4.142 3.357 7.5 7.5 7.5h301.335c4.143 0 7.5-3.358 7.5-7.5s-3.357-7.5-7.5-7.5h-293.835v-16.795c0-5.072 4.127-9.199 9.199-9.199h89.196c4.143 0 7.5-3.358 7.5-7.5s-3.357-7.5-7.5-7.5h-65.558c-.114-1.169-.176-2.347-.176-3.526 0-15.139 9.566-28.758 23.804-33.891 2.908-1.048 4.875-3.774 4.954-6.864.484-18.993 15.748-33.871 34.748-33.871 1.823 0 3.673.147 5.5.437 2.045.325 4.138-.213 5.774-1.485 1.638-1.272 2.676-3.165 2.867-5.229 1.256-13.518 8.746-25.798 20.127-33.203 4.438 5.453 9.301 10.633 14.589 15.491 26.869 24.679 60.986 37.944 97.045 37.944 3.543 0 7.111-.128 10.688-.387 6.492-.469 11.69-5.293 12.643-11.732.064-.43.104-.858.127-1.284 2.026-.363 4.088-.553 6.172-.553 18.075 0 33.3 14.107 34.66 32.115.156 2.068 1.162 3.98 2.778 5.28 1.617 1.3 3.698 1.871 5.754 1.581 1.722-.244 3.439-.368 5.106-.368 19.86 0 36.019 16.158 36.019 36.018 0 1.178-.063 2.356-.177 3.526h-227.444c-4.143 0-7.5 3.358-7.5 7.5s3.357 7.5 7.5 7.5h344.405c5.072 0 9.199 4.126 9.199 9.199v16.795h-158.164c-4.143 0-7.5 3.358-7.5 7.5s3.357 7.5 7.5 7.5h165.665c4.143 0 7.5-3.358 7.5-7.5v-24.295c0-13.342-10.855-24.198-24.199-24.198zm-44.008-388.843 9.684 14.747-274.034 186.724c-1.472-6.311-2.477-12.775-2.979-19.351.165-.095.329-.189.489-.298zm-331.972 247.548-9.685-14.747 17.044-11.613c1.698 5.85 3.765 11.567 6.19 17.128zm58.352 28.108c-26.434-24.28-41.244-57.416-41.704-93.304l-.222-17.408 31.563-7.231 1.571 24.019c3.659 55.912 39.834 104.985 92.161 125.02l7.411 2.838c-33.709.989-65.76-10.952-90.78-33.934z"/><path d="m147.751 412.103c0-11.472 9.333-20.805 20.806-20.805 11.472 0 20.805 9.333 20.805 20.805 0 4.142 3.357 7.5 7.5 7.5s7.5-3.358 7.5-7.5c0-19.743-16.061-35.805-35.805-35.805-19.743 0-35.806 16.062-35.806 35.805 0 4.142 3.357 7.5 7.5 7.5s7.5-3.358 7.5-7.5z"/></g></g></svg>