<svg id="Layer_1" enable-background="new 0 0 512.005 512.005" height="512" viewBox="0 0 512.005 512.005" width="512" xmlns="http://www.w3.org/2000/svg"><g><g><path d="m486.981 443.454c.016-.482.023-.966.023-1.449 0-24.262-19.738-44-44.001-44-4.968 0-9.868.852-14.498 2.468v-171.75h29.999c16.542 0 30-13.458 30-30s-13.458-30-30-30h-1.714c-4.127-11.641-15.249-20-28.286-20-3.068 0-6.096.472-8.98 1.377-9.215-13.249-24.383-21.377-41.02-21.377-24.661 0-45.209 17.947-49.271 41.466-12.019 3.914-20.729 15.226-20.729 28.534 0 12.922 8.213 23.963 19.693 28.176-.708 9.312-2.653 17.792-5.807 25.322-14.909 5.091-26.663 17.035-31.493 32.061-20.038 9.089-42.478 8.486-59.365-1.804-6-3.656-10.971-8.33-14.838-13.846.429-8.127.701-16.721.815-25.774h15.993c16.542 0 30-13.458 30-30s-13.458-30-30-30h-11.005c-4.646-22.794-24.85-40-48.996-40-11.25 0-21.637 3.743-30 10.038v-30.859h30c16.542 0 30-13.458 30-30 0-13.309-8.709-24.62-20.728-28.534-4.063-23.519-24.611-41.466-49.271-41.466-16.637 0-31.805 8.128-41.02 21.377-2.885-.905-5.913-1.377-8.981-1.377-13.038 0-24.159 8.359-28.287 20h-1.713c-16.542 0-30 13.458-30 30s13.458 30 30 30h30v141.243c-21.201 2.766-38.272 18.862-42.494 39.576h-11.005c-16.542 0-30 13.458-30 30s13.458 30 30 30h53.499v37.616c-4.63-1.616-9.531-2.468-14.499-2.468-24.262 0-44 19.738-44 44 0 .483.008.967.023 1.449-14.455 4.305-25.023 17.717-25.023 33.552 0 19.299 15.701 35 35 35h442.002c19.299 0 34.999-15.701 34.999-35.001 0-15.833-10.569-29.245-25.022-33.55zm-78.476-53.462c-6.13-3.538-12.884-5.979-20.002-7.161v-35.008c11.639-4.128 20-15.243 20-28.28 0-13.035-8.364-24.135-20-28.265v-62.557h20.002zm-40.002-161.27v30.859c-6.89-5.185-15.154-8.63-24.143-9.684 1.912-6.65 3.169-13.72 3.755-21.175zm-29.999-40c5.522 0 10-4.478 10-10 0-16.542 13.458-30 30-30 12.215 0 23.11 7.301 27.758 18.601 1.22 2.966 3.788 5.167 6.905 5.918 3.115.749 6.406-.038 8.844-2.123 1.277-1.093 3.44-2.396 6.493-2.396 5.514 0 10 4.486 10 10 0 5.522 4.478 10 10 10h10c5.514 0 10 4.486 10 10s-4.486 10-10 10h-120c-5.514 0-10-4.486-10-10s4.486-10 10-10zm-117.378 110.833c8.808 5.367 18.688 8.78 29.008 10.253-1.051 3.055-1.631 6.328-1.631 9.736 0 16.542 13.458 30 30 30 5.522 0 10-4.478 10-10s-4.478-10-10-10c-5.514 0-10-4.486-10-10s4.486-10 10-10h20c5.522 0 10-4.478 10-10 0-16.542 13.458-30 30-30s30 13.458 30 30c0 5.522 4.478 10 10 10 5.514 0 10 4.486 10 10s-4.486 10-10 10h-10c-5.522 0-10 4.478-10 10s4.478 10 10 10v33.303c-13.261 2.227-25.363 8.828-34.413 18.808-5.498-2.404-11.449-3.65-17.587-3.65-6.546 0-12.973 1.467-18.814 4.229-9.917-12.686-25.099-20.229-41.686-20.229s-31.769 7.544-41.686 20.229c-5.842-2.762-12.269-4.229-18.815-4.229-6.138 0-12.088 1.246-17.587 3.65-9.051-9.98-21.152-16.582-34.413-18.808v-23.212c1.606-.813 3.132-1.762 4.557-2.839 6.063 8.679 15.022 15.071 25.057 15.071 9.783 0 23.399-5.799 32.709-33.424 3.864-11.466 6.783-25.981 8.745-43.416 2.082 1.615 4.264 3.132 6.556 4.528zm-33.816-56.699c.94 11.264 4.047 21.688 9.07 30.832-1.591 24.751-4.769 44.304-9.508 58.367-4.928 14.622-10.49 19.811-13.756 19.811-5.638 0-13.114-10.837-13.114-19.01 0-11.689-6.721-21.834-16.5-26.782v-63.218zm-13.808-80c16.542 0 30 13.458 30 30 0 5.522 4.477 10 10 10h20c5.514 0 10 4.486 10 10s-4.486 10-10 10h-100c-5.514 0-10-4.486-10-10s4.486-10 10-10c5.523 0 10-4.478 10-10 0-16.542 13.458-30 30-30zm-120.001-60.821c-5.514 0-10-4.486-10-10s4.486-10 10-10h10c5.523 0 10-4.478 10-10 0-5.514 4.486-10 10-10 3.053 0 5.216 1.303 6.493 2.396 2.437 2.085 5.727 2.874 8.844 2.123 3.118-.751 5.686-2.952 6.906-5.918 4.647-11.3 15.542-18.601 27.758-18.601 16.542 0 30 13.458 30 30 0 5.522 4.477 10 10 10 5.514 0 10 4.486 10 10s-4.486 10-10 10zm70.001 20v62.557c-11.636 4.129-20 15.23-20 28.265 0 13.036 8.361 24.152 20 28.28v34.646c-5.651-5.111-12.467-8.956-20.001-11.072v-142.676zm-103.5 210.821c0-5.514 4.486-10 10-10h20c5.523 0 10-4.478 10-10 0-16.542 13.458-30 30-30s30 13.458 30 30c0 5.522 4.477 10 10 10 5.514 0 10 4.486 10 10s-4.486 10-10 10h-100c-5.514 0-10-4.486-10-10zm103.5 30v19.975c-7.118 1.182-13.871 3.623-20.001 7.161v-27.136zm353.502 129.149h-442.002c-8.271 0-15-6.729-15-15.001 0-8.271 6.729-14.999 15-14.999h1.495c3.173 0 6.157-1.506 8.043-4.058 1.885-2.552 2.448-5.847 1.516-8.88-.7-2.275-1.054-4.652-1.054-7.063 0-13.233 10.766-24 24-24 5.626 0 11.096 1.987 15.402 5.596.002.002.004.003.006.005 3.802 3.182 6.49 7.397 7.774 12.189 1.197 4.468 5.238 7.414 9.653 7.414.857 0 1.728-.111 2.595-.344 5.334-1.43 8.5-6.913 7.07-12.248-1.521-5.675-4.122-10.905-7.649-15.473 7.51-8.33 18.149-13.14 29.648-13.14 10.758 0 20.865 4.291 28.295 11.744-4.097 4.894-7.13 10.655-8.795 16.87-1.43 5.334 1.736 10.817 7.071 12.247.867.232 1.738.344 2.595.344 4.415 0 8.456-2.947 9.653-7.415 1.404-5.24 4.583-9.897 8.952-13.114.001-.001.002-.001.002-.002.001-.001.003-.002.005-.003 4.141-3.055 9.059-4.669 14.223-4.669 5.656 0 11.148 2.006 15.465 5.649 2.35 1.982 5.481 2.774 8.493 2.146 3.011-.629 5.564-2.607 6.925-5.366 5.606-11.368 16.955-18.431 29.617-18.431 12.663 0 24.011 7.063 29.618 18.431 1.36 2.759 3.914 4.737 6.925 5.366 3.01.628 6.144-.163 8.493-2.146 4.317-3.644 9.81-5.649 15.465-5.649 5.165 0 10.083 1.614 14.223 4.668.001.001.002.001.003.002s.003.002.004.004c4.368 3.217 7.548 7.874 8.952 13.114 1.197 4.468 5.237 7.415 9.653 7.415.856 0 1.728-.111 2.594-.344 5.335-1.43 8.501-6.913 7.071-12.247-1.665-6.214-4.698-11.976-8.795-16.87 7.43-7.452 17.536-11.744 28.294-11.744 11.5 0 22.139 4.81 29.649 13.14-3.527 4.569-6.129 9.799-7.649 15.474-1.43 5.335 1.737 10.818 7.071 12.247.867.232 1.737.344 2.594.344 4.416 0 8.457-2.947 9.653-7.415 1.283-4.79 3.97-9.002 7.771-12.186.003-.002.006-.004.009-.007 4.306-3.608 9.775-5.596 15.401-5.596 13.234 0 24.001 10.767 24.001 24 0 2.409-.355 4.785-1.055 7.063-.933 3.033-.37 6.328 1.516 8.88s4.87 4.058 8.043 4.058h1.496c8.271 0 14.999 6.729 14.999 15 .002 8.272-6.726 15-14.997 15z"/><path d="m343.175 19.663c3.096.829 5.683 2.815 7.286 5.592 1.787 3.094 5.088 4.999 8.661 4.999 3.572 0 6.873-1.906 8.659-5 1.603-2.776 4.19-4.762 7.285-5.591 5.335-1.429 8.502-6.911 7.072-12.246-1.428-5.334-6.909-8.505-12.246-7.072-3.946 1.057-7.584 2.818-10.771 5.178-3.188-2.359-6.825-4.121-10.771-5.178-5.337-1.432-10.818 1.737-12.247 7.071s1.737 10.818 7.072 12.247z"/><path d="m285.192 70.782c3.096.83 5.684 2.815 7.286 5.591 1.786 3.095 5.088 5 8.661 5 3.572 0 6.874-1.906 8.66-5.001 1.602-2.775 4.188-4.761 7.284-5.59 5.335-1.429 8.502-6.911 7.072-12.246-1.428-5.334-6.908-8.504-12.246-7.072-3.947 1.057-7.584 2.818-10.771 5.178-3.188-2.359-6.825-4.121-10.772-5.178-5.331-1.431-10.818 1.737-12.246 7.072-1.43 5.335 1.737 10.817 7.072 12.246z"/><path d="m400.515 92.157c3.096.83 5.684 2.815 7.286 5.591 1.786 3.094 5.087 5 8.659 5h.001c3.572 0 6.873-1.905 8.66-4.999 1.604-2.776 4.19-4.763 7.286-5.592 5.335-1.429 8.501-6.912 7.071-12.247-1.428-5.333-6.909-8.503-12.247-7.071-3.946 1.057-7.582 2.818-10.771 5.178-3.188-2.359-6.824-4.121-10.771-5.178-5.338-1.431-10.818 1.737-12.247 7.071-1.428 5.335 1.738 10.818 7.073 12.247z"/><path d="m258.271 147.657c3.096.83 5.684 2.815 7.286 5.591 1.786 3.094 5.087 5 8.659 5h.001c3.572 0 6.873-1.905 8.66-4.999 1.604-2.776 4.19-4.763 7.286-5.592 5.335-1.429 8.501-6.912 7.071-12.247-1.428-5.333-6.908-8.502-12.247-7.071-3.946 1.057-7.582 2.818-10.771 5.178-3.188-2.359-6.824-4.121-10.771-5.178-5.336-1.429-10.818 1.737-12.248 7.071-1.427 5.335 1.739 10.818 7.074 12.247z"/><path d="m234.032 452.641h-.007c-5.523 0-9.997 4.478-9.997 10s4.481 10 10.004 10 10-4.478 10-10-4.477-10-10-10z"/><path d="m381.212 457.703h-.008c-5.522 0-9.996 4.478-9.996 10s4.481 10 10.004 10 10-4.478 10-10-4.477-10-10-10z"/><path d="m131.275 453.016h-.008c-5.523 0-9.996 4.478-9.996 10s4.481 10 10.004 10 10-4.478 10-10-4.477-10-10-10z"/><path d="m309.032 439.141h-.008c-5.522 0-9.996 4.478-9.996 10s4.481 10 10.004 10 10-4.478 10-10-4.477-10-10-10z"/><path d="m323.506 349.543c5.522 0 10-4.478 10-10s-4.478-10-10-10h-.007c-5.522 0-9.997 4.478-9.997 10s4.482 10 10.004 10z"/></g></g></svg>