<?xml version="1.0" encoding="UTF-8"?>
<svg width="12px" height="17px" viewBox="0 0 12 17" version="1.1" xmlns="http://www.w3.org/2000/svg" xmlns:xlink="http://www.w3.org/1999/xlink">
    <g id="Page-1" stroke="none" stroke-width="1" fill="none" fill-rule="evenodd">
        <g id="UI-Elements" transform="translate(-77.000000, -134.000000)">
            <g id="Icon-30-—-Lock" transform="translate(68.000000, 128.000000)">
                <g id="Main-Button-36h-Copy-2">
                    <path d="M3,0 L27,0 C28.6568542,-3.04359188e-16 30,1.34314575 30,3 L30,27 C30,28.6568542 28.6568542,30 27,30 L3,30 C1.34314575,30 2.02906125e-16,28.6568542 0,27 L0,3 C-2.02906125e-16,1.34314575 1.34314575,3.04359188e-16 3,0 Z" id="Rectangle-9"></path>
                    <g id="lock-copy" transform="translate(9.000000, 7.000000)">
                        <g id="Group">
                            <path d="M0,16 L0,7 L12,7 L12,16 L0,16 Z M6,13 C6.55228475,13 7,10.8627417 7,10.2 C7,9.5372583 6.55228475,9 6,9 C5.44771525,9 5,9.5372583 5,10.2 C5,10.8627417 5.44771525,13 6,13 Z"
                                id="Combined-Shape" fill="currentColor"></path>
                            <path d="M9.07784624,6.29899262 C9.07784624,5.7065968 9.07784624,3.68691579 9.07784624,3.26283646 C9.07784624,1.58848153 7.75044491,0.215132648 6,0.215132648 C4.24955508,0.215132648 2.92215376,1.53019737 2.92215376,3.26455809 L2.92215376,6.29899262"
                                id="Shape" stroke="currentColor" stroke-width="1.5" stroke-linecap="square"></path>
                        </g>
                    </g>
                </g>
            </g>
        </g>
    </g>
</svg>
