<svg id="Capa_1" enable-background="new 0 0 512 512" height="512" viewBox="0 0 512 512" width="512" xmlns="http://www.w3.org/2000/svg"><g><path d="m381.673 235.574h100.327c16.542 0 30-13.458 30-30s-13.458-30-30-30h-162.893l32.196-32.196c1.406-1.407 2.196-3.314 2.196-5.304v-60.996c14.054-27.29 36.085-49.003 63.813-62.867 3.704-1.853 5.206-6.357 3.354-10.063-1.852-3.704-6.354-5.204-10.063-3.354-31.179 15.589-55.838 40.188-71.312 71.135-.521 1.042-.792 2.19-.792 3.354v59.684l-33.697 33.696c-2.41-4.382-5.887-8.095-10.074-10.8 3.916-4.787 6.271-10.898 6.271-17.551 0-8.48-3.798-16.382-10.419-21.678l-27.08-21.665v-89.466c0-4.143-3.357-7.5-7.5-7.5s-7.5 3.357-7.5 7.5v89.467l-27.08 21.665c-6.622 5.296-10.42 13.197-10.42 21.678 0 6.652 2.354 12.764 6.271 17.551-4.187 2.705-7.663 6.418-10.074 10.8l-33.697-33.696v-59.684c0-1.164-.271-2.313-.792-3.354-15.474-30.947-40.133-55.546-71.312-71.135-3.707-1.855-8.211-.351-10.063 3.354-1.853 3.705-.351 8.21 3.354 10.063 27.728 13.864 49.759 35.577 63.813 62.867v60.996c0 1.989.79 3.896 2.196 5.304l32.196 32.196h-162.892c-16.542 0-30 13.458-30 30s13.458 30 30 30c4.143 0 7.5-3.357 7.5-7.5s-3.357-7.5-7.5-7.5c-8.271 0-15-6.729-15-15s6.729-15 15-15h173.5v16.484l-48.768 10.837c-7.999 1.777-16.211 2.679-24.405 2.679h-70.327c-4.143 0-7.5 3.357-7.5 7.5s3.357 7.5 7.5 7.5h70.327c9.287 0 18.593-1.021 27.659-3.036l29.498-6.555-71.788 71.788c-1.406 1.407-2.196 3.314-2.196 5.304v73.211c-18.698 36.547-49.127 66.718-85.854 85.081-3.704 1.853-5.206 6.357-3.354 10.063 1.313 2.628 3.963 4.147 6.714 4.147 1.127 0 2.271-.256 3.349-.794 40.133-20.066 73.287-53.221 93.354-93.354.521-1.042.792-2.19.792-3.354v-71.894l75-74.999v2.65c0 5.923.987 11.626 2.78 16.965l-46.513 69.536c-.826 1.234-1.267 2.686-1.267 4.17v88.211c-18.699 36.547-49.128 66.718-85.854 85.081-3.704 1.853-5.206 6.357-3.354 10.063 1.313 2.628 3.963 4.147 6.714 4.147 1.127 0 2.271-.256 3.349-.794 40.133-20.066 73.286-53.22 93.354-93.354.521-1.042.792-2.19.792-3.354v-87.724l40.724-60.881c3.315 4.413 7.289 8.293 11.776 11.482v114.622c0 16.542 13.458 30 30 30s30-13.458 30-30v-114.418c2.424-1.696 4.73-3.596 6.88-5.718 1.834-1.81 3.514-3.734 5.042-5.75l40.576 60.663v87.723c0 1.164.271 2.313.792 3.354 20.067 40.134 53.221 73.287 93.354 93.354 1.077.539 2.222.794 3.349.794 2.751 0 5.4-1.52 6.714-4.147 1.853-3.705.351-8.21-3.354-10.063-36.727-18.363-67.155-48.534-85.854-85.081v-88.211c0-1.484-.44-2.936-1.267-4.17l-46.378-69.333c1.731-5.251 2.645-10.8 2.645-16.497v-3.321l75 74.999v71.894c0 1.164.271 2.313.792 3.354 20.066 40.133 53.221 73.287 93.354 93.354 1.077.539 2.222.794 3.349.794 2.751 0 5.4-1.52 6.714-4.147 1.853-3.705.351-8.21-3.354-10.063-36.728-18.363-67.156-48.534-85.854-85.081v-73.211c0-1.989-.79-3.896-2.196-5.304l-71.788-71.788 29.498 6.555c9.064 2.015 18.37 3.036 27.657 3.036zm115.327-30c0 8.271-6.729 15-15 15h-100.327c-8.194 0-16.406-.901-24.405-2.679l-48.768-10.837v-16.484h173.5c8.271 0 15 6.729 15 15zm-203.5 28.929c0 10.108-3.963 19.587-11.157 26.689-7.074 6.983-16.411 10.811-26.341 10.811-.167 0-.335-.001-.503-.003-20.401-.265-36.999-17.387-36.999-38.168v-50.758c0-8.271 6.729-15 15-15h45c8.271 0 15 6.729 15 15zm-62.71-104.155 25.21-20.169 25.211 20.169c3.043 2.435 4.789 6.066 4.789 9.965 0 7.037-5.725 12.762-12.762 12.762h-34.477c-7.037 0-12.762-5.725-12.762-12.762.001-3.899 1.747-7.531 4.791-9.965zm10.21 216.655h30v15h-30zm30-15h-30v-15h30zm-15 75c-8.271 0-15-6.729-15-15v-15h30v15c0 8.271-6.729 15-15 15zm15-105h-30v-17.242c4.547 1.385 9.342 2.173 14.305 2.237.235.003.469.005.703.005 5.151 0 10.188-.74 14.992-2.165z"/></g></svg>