<?xml version="1.0" encoding="UTF-8"?>
<svg width="12px" height="18px" viewBox="0 0 12 18" version="1.1" xmlns="http://www.w3.org/2000/svg" xmlns:xlink="http://www.w3.org/1999/xlink">
    <!-- Generator: sketchtool 52.5 (67469) - http://www.bohemiancoding.com/sketch -->
    <g id="Page-1" stroke="none" stroke-width="1" fill="none" fill-rule="evenodd">
        <g id="UI-Elements" transform="translate(-74.000000, -133.000000)">
            <g id="Icon-30-—-Unlock" transform="translate(65.000000, 128.000000)">
                <g id="Main-Button-36h-Copy-2">
                    <path d="M3,0 L27,0 C28.6568542,-3.04359188e-16 30,1.34314575 30,3 L30,27 C30,28.6568542 28.6568542,30 27,30 L3,30 C1.34314575,30 2.02906125e-16,28.6568542 0,27 L0,3 C-2.02906125e-16,1.34314575 1.34314575,3.04359188e-16 3,0 Z" id="Rectangle-9"></path>
                    <g id="lock-copy" transform="translate(9.000000, 6.000000)">
                        <g id="Group">
                            <path d="M0,17 L0,8 L12,8 L12,17 L0,17 Z M6,14 C6.55228475,14 7,11.8627417 7,11.2 C7,10.5372583 6.55228475,10 6,10 C5.44771525,10 5,10.5372583 5,11.2 C5,11.8627417 5.44771525,14 6,14 Z" 
                                id="Combined-Shape" fill="currentColor"></path>
                            <path d="M9.07784624,4.29899262 C9.07784624,3.7065968 9.07784624,3.68691579 9.07784624,3.26283646 C9.07784624,1.58848153 7.75044491,0.215132648 6,0.215132648 C4.24955508,0.215132648 2.92215376,1.53019737 2.92215376,3.26455809 L2.92215376,9.29899262" id="Shape" 
                                stroke="currentColor" stroke-width="1.5" stroke-linecap="square"></path>
                        </g>
                    </g>
                </g>
            </g>
        </g>
    </g>
</svg>