<svg id="Capa_1" enable-background="new 0 0 510.228 510.228" height="512" viewBox="0 0 510.228 510.228" width="512" xmlns="http://www.w3.org/2000/svg"><g><path d="m379.779 192.864c16.683-13.767 27.335-34.595 27.335-57.864 0-26.776-14.114-50.305-35.283-63.577-.096-.39-.185-.782-.313-1.167l-9.004-27.012c-8.622-25.866-32.733-43.244-59.998-43.244h-94.805c-27.265 0-51.375 17.378-59.998 43.244l-9.004 27.013c-.128.385-.217.776-.313 1.167-21.169 13.272-35.283 36.802-35.283 63.577 0 23.269 10.652 44.096 27.335 57.864-11.106 9.638-18.15 23.84-18.15 39.665 0 22.028 13.636 40.92 32.905 48.711-4.608 7.66-7.265 16.64-7.265 26.346 0 19.681 10.886 36.859 26.947 45.855-5.743 8.242-9.107 18.265-9.107 29.203 0 23.384 15.362 43.24 36.522 50.026-4.134 7.365-6.493 15.877-6.493 25.031 0 28.964 23.564 52.529 52.529 52.529h33.552c28.964 0 52.529-23.564 52.529-52.529 0-9.154-2.359-17.666-6.493-25.031 21.159-6.786 36.522-26.643 36.522-50.026 0-10.938-3.364-20.96-9.107-29.202 16.061-8.996 26.947-26.174 26.947-45.855 0-9.706-2.656-18.686-7.265-26.346 19.269-7.791 32.905-26.683 32.905-48.711.002-15.827-7.042-30.029-18.147-39.667zm-85.36 264.835c0 12.422-10.106 22.529-22.529 22.529h-33.552c-12.422 0-22.529-10.106-22.529-22.529s10.106-22.528 22.529-22.528h33.552c12.422 0 22.529 10.106 22.529 22.528zm7.5-52.528h-93.609c-12.422 0-22.529-10.106-22.529-22.529s10.106-22.528 22.529-22.528h93.609c12.422 0 22.529 10.106 22.529 22.529s-10.107 22.528-22.529 22.528zm40.369-97.586c0 12.422-10.106 22.528-22.529 22.528h-129.29c-12.422 0-22.529-10.106-22.529-22.528s10.106-22.529 22.529-22.529h129.29c12.422.001 22.529 10.107 22.529 22.529zm3.112-52.528h-180.572c-12.422 0-22.529-10.106-22.529-22.528s10.107-22.529 22.529-22.529h180.572c12.422 0 22.529 10.106 22.529 22.528s-10.107 22.529-22.529 22.529zm-212.286-120.057c0-24.813 20.187-45 45-45h154c24.813 0 45 20.187 45 45s-20.187 45-45 45h-154c-24.813 0-45-20.187-45-45zm40.638-75 2.423-7.27c4.532-13.595 17.206-22.73 31.537-22.73h94.805c14.331 0 27.005 9.135 31.537 22.731l2.422 7.269h-4.362-154z"/><path d="m184.114 148.395c7.846 0 15.363-6.899 15-15-.364-8.127-6.591-15-15-15-7.846 0-15.363 6.899-15 15 .364 8.127 6.591 15 15 15z"/><path d="m326.114 148.395c7.846 0 15.363-6.899 15-15-.364-8.127-6.591-15-15-15-7.846 0-15.363 6.899-15 15 .364 8.127 6.591 15 15 15z"/></g></svg>