<svg id="Layer_1" height="512" viewBox="0 0 512 512" width="512" xmlns="http://www.w3.org/2000/svg" data-name="Layer 1"><circle cx="441.18" cy="72.855" fill="#e75163" r="16.743"/><path d="m293.04 140.97-29.46 29.88.08.08 80.82 81.73 29.46-29.88z" fill="#b0b5ca"/><path d="m186.58 249.42 80.65 81.56-2.69 2.73a57.521 57.521 0 0 1 -81.8-80.89l3.59-3.64z" fill="#b0b5ca"/><path d="m427.2 356.56-65.61 66.22-.12.12 41.21 41.7 65.74-66.33z" fill="#6d7486"/><path d="m263.66 170.93-.08-.08-77.25 78.33.25.24 80.65 81.56 77.25-78.32z" fill="#e75163"/><path d="m117.54 43.26-65.75 66.33 41.22 41.71 65.62-66.23.11-.11z" fill="#6d7486"/><path d="m341.72 151h-.01l-19.22 19.61 21.27 21.585 18.6-18.942z" fill="#6d7486"/><path d="m362.36 173.44a79.589 79.589 0 0 1 -20.64-22.14 80.218 80.218 0 0 1 7.98-95.53l53.27 53.88 57.72 58.37a77.932 77.932 0 0 1 -98.33 5.42z" fill="#b0b5ca"/><path d="m223.45 174.19-.09-.09-42.25 42.61 18.44 18.64.21.21 42.12-42.72z" fill="#6d7486"/><path d="m322.87 274.74-.09-.09-42.12 42.72 16.1 16.3.09.09 42.25-42.61z" fill="#6d7486"/><path d="m339.1 291.15 11.75-11.86 76.35 77.27-23.84 24.07-.17-.17-76.42-76.88z" fill="#4689d3"/><path d="m403.36 380.63-17.59 17.74-.14-.14-76.43-76.9-.01-.01 17.58-17.74 76.42 76.88z" fill="#5fa8ed"/><path d="m385.77 398.37-24.18 24.41-.12.12-76.37-77.28 11.75-11.86 12.34-12.44.01.01 76.43 76.9z" fill="#4689d3"/><path d="m158.74 84.96 76.37 77.28-11.75 11.86-12.33 12.43-.01-.01-76.58-77.03 24.19-24.42z" fill="#4689d3"/><path d="m211.03 186.53-17.59 17.75-76.59-77.05 17.59-17.74 76.58 77.03z" fill="#5fa8ed"/><path d="m181.11 216.71-11.75 11.86-76.35-77.27 23.84-24.07 76.59 77.05z" fill="#4689d3"/><path d="m202.74 272.82 3.485-3.533-19.645-19.867-.25-.24-3.59 3.64a57.577 57.577 0 0 0 11.49 89.9 57.526 57.526 0 0 1 8.51-69.9z" fill="#9499aa"/><path d="m206.33 269.18.25.24-.245-.245z" fill="#e75163"/><path d="m263.66 170.93-.08-.08-77.25 78.33.25.24 19.755 19.755 77.134-78.213z" fill="#c6475c"/><path d="m283.469 190.962.111-.112 29.349-29.767-19.889-20.113-29.46 29.88.08.08z" fill="#9499aa"/><path d="m369.6 75.893-19.9-20.123a80.218 80.218 0 0 0 -7.98 95.53 79.589 79.589 0 0 0 20.64 22.14c.476.347.964.67 1.446 1-.719-1.037-1.423-2.082-2.086-3.145a80.218 80.218 0 0 1 7.88-95.402z" fill="#9499aa"/><g fill="#284268"><path d="m136.743 345.333-8.608 8.609a6 6 0 1 0 8.486 8.485l8.608-8.609a6 6 0 0 0 -8.486-8.485z"/><path d="m88.458 402.653a6 6 0 0 0 8.485 0l22.857-22.853a6 6 0 1 0 -8.484-8.485l-22.857 22.853a6 6 0 0 0 -.001 8.485z"/><path d="m52.224 430.4-12.357 12.359a6 6 0 0 0 8.485 8.486l12.356-12.357a6 6 0 1 0 -8.484-8.485z"/><path d="m71.242 411.385-2.18 2.179a6 6 0 1 0 8.483 8.487l2.18-2.178a6 6 0 0 0 -8.483-8.488z"/><path d="m121.207 314.475-29.868 29.868a6 6 0 1 0 8.484 8.485l29.868-29.868a6 6 0 1 0 -8.484-8.485z"/><path d="m83 361.716a6 6 0 0 0 -8.485 0l-7.985 7.984a6 6 0 0 0 8.485 8.486l7.985-7.986a6 6 0 0 0 0-8.484z"/><path d="m43.576 407.14a5.986 5.986 0 0 0 4.243-1.757l9.981-9.983a6 6 0 0 0 -8.486-8.486l-9.981 9.986a6 6 0 0 0 4.243 10.243z"/><path d="m176.088 369.356a6 6 0 1 0 -8.484-8.485l-11.448 11.446a6 6 0 1 0 8.485 8.485z"/><path d="m136.92 392.1-16.92 16.925a6 6 0 0 0 8.486 8.486l16.923-16.924a6 6 0 0 0 -8.486-8.485z"/><path d="m111.264 426.244a6 6 0 0 0 -8.485 0l-17.05 17.049a6 6 0 0 0 8.485 8.486l17.05-17.05a6 6 0 0 0 0-8.485z"/><path d="m185.725 389.145-20.259 20.255a6 6 0 1 0 8.484 8.485l20.259-20.259a6 6 0 0 0 -8.484-8.485z"/><path d="m148.641 426.777-12.517 12.517a6 6 0 0 0 8.486 8.486l12.517-12.517a6 6 0 0 0 -8.486-8.486z"/><path d="m118.906 456.513-7.984 7.984a6 6 0 1 0 8.484 8.485l7.985-7.982a6 6 0 1 0 -8.485-8.485z"/><path d="m264.282 201.521-4.452 4.451a6 6 0 1 0 8.484 8.486l4.453-4.451a6 6 0 1 0 -8.485-8.486z"/><path d="m246.4 219.407-31.5 31.493a6 6 0 0 0 8.485 8.486l31.494-31.494a6 6 0 0 0 -8.484-8.486z"/><path d="m355.119 274.927a6.139 6.139 0 0 0 -4.263-1.927 6.147 6.147 0 0 0 -4.264 1.92l-7.487 7.626-7.862-7.926 46.967-47.627a6 6 0 0 0 -.006-8.432l-26-26.3 10.92-11.061a83.8 83.8 0 0 0 101.6-8.747 6 6 0 0 0 .23-8.658l-53.523-54.127 17.6-17.6a22.733 22.733 0 1 0 -8.1-8.867l-17.931 17.937-49.033-49.583a6 6 0 0 0 -8.751.232 86.144 86.144 0 0 0 -11 98.554l-11.729 11.877-25.183-25.452a5.982 5.982 0 0 0 -4.266-1.766 5.983 5.983 0 0 0 -4.268 1.771l-46.88 47.535-10.09-10.206 7.572-7.64a6 6 0 0 0 .006-8.442l-117.578-119.105a6.124 6.124 0 0 0 -4.26-1.913h-.005a6.137 6.137 0 0 0 -4.262 1.906l-65.748 66.394a6.04 6.04 0 0 0 0 8.474l117.573 119.21a6.235 6.235 0 0 0 4.257 2.016h.005a6.224 6.224 0 0 0 4.262-1.991l7.487-7.661 10.182 10.259-12.818 13a63.739 63.739 0 0 0 0 89.327 63.524 63.524 0 0 0 90.343-.009l11.843-12.009 7.754 7.842-7.571 7.639a6 6 0 0 0 -.006 8.442l117.572 119.18a6.2 6.2 0 0 0 4.263 1.981 6.21 6.21 0 0 0 4.262-1.977l65.748-66.43a6.15 6.15 0 0 0 0-8.564zm78.467-209.667a10.741 10.741 0 0 1 15.189 15.19 10.74 10.74 0 1 1 -15.188-15.19zm-82.741 222.558 67.917 68.73-15.416 15.56-68.122-68.53zm44.055 92.815-9.134 9.22-68.127-68.535 9.136-9.218zm-44.771-315.893 101.71 102.86a71.93 71.93 0 0 1 -94.957-6.746 74.105 74.105 0 0 1 -6.753-96.114zm-9.23 95.914a86.018 86.018 0 0 0 7.45 8.634c1.63 1.649 3.325 3.194 5.052 4.681l-9.639 9.762-12.835-12.979zm-114.232 1.579-15.646 15.786-68.129-68.537 15.843-15.992zm-24.095 24.308-9.135 9.217-68.125-68.533 9.133-9.219zm-142.343-76.941 57.3-57.807 32.771 33.161-57.286 57.82zm109.138 110.441-67.918-68.73 15.417-15.561 68.122 68.531zm20.191-3.31 33.792-34.1 10.107 10.219-33.716 34.187zm34.084 128.054a51.154 51.154 0 0 1 -36.636-15.3 51.7 51.7 0 0 1 -.649-71.765l72.407 73.223a51.12 51.12 0 0 1 -35.122 13.842zm43.587-22.344-72.46-73.278 68.811-69.778 5.611 5.675a6 6 0 0 0 8.533-8.438l-5.717-5.782 21.037-21.332 72.456 73.277-21.036 21.332-38.614-39.052a6 6 0 0 0 -8.509-.024 6 6 0 0 0 -.025 8.462l38.723 39.16zm55.571-39.259 7.856 7.95-33.793 34.1-7.774-7.861zm-29.253 62.443 15.646-15.785 68.129 68.537-15.843 15.992zm109.136 110.443-32.771-33.163 57.288-57.821 32.785 33.178z"/></g></svg>