<svg height="485pt" viewBox="0 -90 485.41089 485" width="485pt" xmlns="http://www.w3.org/2000/svg"><path d="m298.691406 224.207031h-32c-4.417968 0-8 3.582031-8 8v32c0 4.417969 3.582032 8 8 8h32c4.417969 0 8-3.582031 8-8v-32c0-4.417969-3.582031-8-8-8zm-8 32h-16v-16h16zm0 0"/><path d="m274.691406 176.207031c0-17.671875-14.328125-32-32-32-17.675781 0-32 14.328125-32 32s14.324219 32 32 32c17.671875 0 32-14.328125 32-32zm-32 16c-8.835937 0-16-7.164062-16-16 0-8.835937 7.164063-16 16-16 8.835938 0 16 7.164063 16 16 0 8.835938-7.164062 16-16 16zm0 0"/><path d="m475.945312 89.671875-124.640624-88c-2.765626-1.957031-6.464844-1.957031-9.230469 0l-92.71875 65.441406-2.050781-1.441406c-2.765626-1.957031-6.464844-1.957031-9.230469 0l-2.046875 1.441406-92.722656-65.441406c-2.765626-1.957031-6.464844-1.957031-9.230469 0l-124.648438 88c-9.882812 7-12.386719 20.601563-5.648437 30.664063 3.425781 5.003906 8.726562 8.414062 14.699218 9.453124 5.976563 1.039063 12.117188-.378906 17.03125-3.933593l15.183594-11.136719v109.488281c0 8.835938 7.164063 16 16 16h88v48c0 8.835938 7.164063 16 16 16h144c8.835938 0 16-7.164062 16-16v-48h88c8.835938 0 16-7.164062 16-16v-109.488281l15.199219 11.152344c3.792969 2.789062 8.375 4.289062 13.078125 4.289062 7.535156.003906 14.574219-3.753906 18.761719-10.015625 6.632812-10.050781 4.070312-23.550781-5.785157-30.472656zm-113.253906 77.039063c2.078125 1.457031 3.078125 4.023437 2.527344 6.503906-.550781 2.480468-2.539062 4.382812-5.039062 4.824218-1.6875.28125-3.414063-.121093-4.800782-1.121093l-107.953125-79.199219c-2.8125-2.0625-6.640625-2.0625-9.457031 0l-107.949219 79.199219c-1.386719 1-3.117187 1.402343-4.800781 1.121093-2.5-.4375-4.488281-2.339843-5.042969-4.816406-.550781-2.476562.441407-5.042968 2.515625-6.503906l120-84.71875zm-32-54.503907c0-8.835937 7.164063-16 16-16 8.835938 0 16 7.164063 16 16 0 8.835938-7.164062 16-16 16-8.835937 0-16-7.164062-16-16zm64 64v16h-16v-9.976562c1.050782-1.886719 1.816406-3.914063 2.277344-6.023438zm-256-48c-8.835937 0-16-7.164062-16-16 0-8.835937 7.164063-16 16-16 8.835938 0 16 7.164063 16 16 0 8.835938-7.164062 16-16 16zm-112.585937-15.296875c-1.085938.789063-2.394531 1.214844-3.734375 1.21875-2.097656-.003906-4.0625-1.015625-5.28125-2.722656-1.886719-2.847656-1.179688-6.675781 1.601562-8.664062l120-84.742188 83.460938 58.910156-10.183594 7.203125-68.542969-50.347656c-2.816406-2.066406-6.652343-2.066406-9.472656 0zm40.585937-9.933594 72-52.847656 59.496094 43.679688-27.609375 19.496094c0-.378907.113281-.738282.113281-1.113282.0625-16.433594-12.328125-30.242187-28.671875-31.953125-16.34375-1.707031-31.328125 9.238281-34.664062 25.332031-3.335938 16.089844 6.058593 32.089844 21.734375 37.019532l-15.6875 11.074218c-2.472656 1.746094-4.5625 3.976563-6.152344 6.550782h-16.558594c-4.417968 0-8 3.582031-8 8v56h-16zm32 121.230469v-48h5.71875c.582032 2.859375 1.714844 5.574219 3.335938 8 4.992187 7.550781 14.085937 11.289063 22.945312 9.441407v30.558593zm48 0v-39.679687l8-5.863282v45.542969zm56 64v-48h32v48zm112 0h-64v-56c0-4.417969-3.582031-8-8-8h-48c-4.417968 0-8 3.582031-8 8v56h-16v-121.28125l72-52.796875 72 52.796875zm16-64v-45.542969l8 5.863282v39.679687zm88 0h-64v-30.542969c2.628906.582032 5.347656.636719 8 .152344v6.390625c0 4.417969 3.582032 8 8 8h32c4.417969 0 8-3.582031 8-8v-32c0-4.417969-3.582031-8-8-8h-24.59375c-1.585937-2.582031-3.683594-4.8125-6.160156-6.558593l-15.648438-11.039063c15.609376-4.957031 24.941407-20.917969 21.601563-36.953125s-18.265625-26.941406-34.558594-25.253906c-16.289062 1.6875-28.660156 15.425781-28.640625 31.804687 0 .375.09375.726563.109375 1.105469l-27.605469-19.503906 59.496094-43.679688 72 52.847656zm49.695313-112.886719c-.988281 1.453126-2.523438 2.441407-4.257813 2.734376-1.679687.304687-3.414062-.089844-4.796875-1.09375l-107.921875-79.203126c-2.816406-2.066406-6.652344-2.066406-9.472656 0l-68.535156 50.335938-10.183594-7.199219 83.472656-58.894531 120 84.710938c2.8125 1.929687 3.570313 5.753906 1.703125 8.609374zm0 0"/></svg>