<svg height="512" viewBox="0 0 128 128" width="512" xmlns="http://www.w3.org/2000/svg"><g><g><g fill="#a07854"><path d="m111 74.791v-17.058l-47-42.764-47 42.764v17.058z"/><path d="m98.752 86.541h12.248v16.485h-12.248z"/><path d="m17 86.541h12.248v16.485h-12.248z"/><path d="m58.998 86.541h10.005v16.485h-10.005z"/><g><path d="m17 114.777h12.248v11.473h-12.248z"/><path d="m58.998 114.777h52.002v11.473h-52.002z"/></g></g><path d="m120.036 65.955-56.036-50.986-56.036 50.986-6.214-7.566 62.25-56.639 62.25 56.639z" fill="#3c3a41"/><path d="m17 57.733v.573h94v-.573l-12.284-11.177h-69.432z" fill="#896748"/><path d="m29.248 74.791h29.75v51.459h-29.75z" fill="#3c3a41"/><path d="m51 105.909a1.749 1.749 0 0 1 -1.75-1.75v-7.687a1.75 1.75 0 0 1 3.5 0v7.687a1.75 1.75 0 0 1 -1.75 1.75z" fill="#57555c"/><path d="m69.002 74.791h29.75v39.985h-29.75z" fill="#cfcf33"/><path d="m111.25 74.791h-12.5v11.75h12.5a5.875 5.875 0 0 0 0-11.75z" fill="#896748"/><path d="m111.25 103.027h-12.5v11.75h12.5a5.875 5.875 0 0 0 0-11.75z" fill="#896748"/><path d="m98.752 93.034h-13.125v-18.242-.001h-3.5v.001 18.242h-13.125v3.5h13.125v18.243h3.5v-18.243h13.125z" fill="#e0e0e0"/><g fill="#896748"><path d="m29.248 74.791h-12.498a5.875 5.875 0 0 0 0 11.75h12.5z"/><path d="m58.998 74.791h10.005v11.75h-10.005z"/></g><g fill="#896748"><path d="m29.248 103.027h-12.498a5.875 5.875 0 0 0 0 11.75h12.5z"/><path d="m58.998 103.027h10.005v11.75h-10.005z"/></g></g><g><path d="m127.428 57.1-16.893-15.37a1.75 1.75 0 1 0 -2.355 2.589l15.662 14.25-3.99 4.857-7.673-6.981-12.285-11.184-34.716-31.587a1.752 1.752 0 0 0 -2.356 0l-34.714 31.586-12.286 11.179-7.674 6.982-3.99-4.857 59.842-54.448 18.7 17.014a1.75 1.75 0 1 0 2.355-2.588l-19.877-18.086a1.75 1.75 0 0 0 -2.356 0l-62.25 56.644a1.751 1.751 0 0 0 -.172 2.4l6.214 7.565a1.751 1.751 0 0 0 2.531.184l6.108-5.558v11.5a7.624 7.624 0 0 0 0 14.951v13.285a7.624 7.624 0 0 0 0 14.95v9.873a1.751 1.751 0 0 0 1.747 1.75h94a1.751 1.751 0 0 0 1.75-1.75v-9.873a7.624 7.624 0 0 0 0-14.95v-13.285a7.624 7.624 0 0 0 0-14.951v-11.5l6.108 5.558a1.753 1.753 0 0 0 1.178.456h.127a1.752 1.752 0 0 0 1.226-.635l6.211-7.57a1.75 1.75 0 0 0 -.172-2.4zm-18.178 44.177h-8.75v-12.985h8.748zm-23.623 11.75v-16.493h11.373v16.493zm-14.875 0v-16.493h11.375v16.493zm-10 0v-8.25h6.5v8.25zm6.5-36.485v8.25h-6.5v-8.25zm14.875 0v16.492h-11.375v-16.492zm-21.379 11.75h6.5v12.985h-6.5zm36.252-1.75v6.492h-11.373v-16.492h11.373zm1.75-13.5h-80v-12.986h22.625a1.75 1.75 0 0 0 0-3.5h-20.481l9.068-8.25h68.076l9.068 8.25h-53.114a1.75 1.75 0 0 0 0 3.5h55.258v12.986zm-80 15.25h8.75v12.985h-8.75zm75.442-43.486h-60.384l30.192-27.471zm-81.567 35.861a4.13 4.13 0 0 1 4.125-4.125h10.75v8.25h-10.75a4.13 4.13 0 0 1 -4.125-4.125zm0 28.235a4.13 4.13 0 0 1 4.125-4.125h10.75v8.25h-10.75a4.13 4.13 0 0 1 -4.125-4.127zm6.125 7.625h8.75v7.973h-8.75zm12.25-1.75v-38.235h26.25v47.958h-26.25zm78.25 9.723h-48.5v-7.973h48.5zm6.125-15.6a4.13 4.13 0 0 1 -4.125 4.125h-10.75v-8.25h10.75a4.13 4.13 0 0 1 4.125 4.125zm0-28.235a4.13 4.13 0 0 1 -4.125 4.125h-10.75v-8.25h10.75a4.13 4.13 0 0 1 4.125 4.127z"/><path d="m98.105 35.146a1.75 1.75 0 1 0 2.355-2.588l-5.33-4.85a1.75 1.75 0 0 0 -2.355 2.592z"/><path d="m51 94.722a1.749 1.749 0 0 0 -1.75 1.75v7.687a1.75 1.75 0 0 0 3.5 0v-7.687a1.75 1.75 0 0 0 -1.75-1.75z"/></g></g></svg>
